<svg style="display: none;" id="icon" version="1.1" xmlns="http://www.w3.org/2000/svg"><symbol id="icon-logo" viewBox="0 0 168 40"><g clip-path="url(#clip0)" fill-rule="evenodd" clip-rule="evenodd" fill="#fff"><path d="M142.118 2.775h-5.278L136.841 32h5.277V2.775zM151.709 19.63c.488-3.163 2.679-5.165 5.805-5.165 3.287 0 5.44 2.002 5.561 5.164h-11.366zm5.765-9.208c-6.495 0-11.041 4.404-11.041 10.93 0 6.445 4.425 10.848 11.163 10.848 3.815 0 6.981-1.361 9.133-3.683l-2.842-2.922c-1.542 1.561-3.612 2.402-5.845 2.402-3.166 0-5.52-1.842-6.21-4.884h16.033c.528-7.767-2.76-12.691-10.391-12.691zM45.595 10.382c-3.532.04-6.251 1.36-7.794 4.203v-4.004h-5.277V32h5.277V21.47c0-3.523 2.11-6.125 5.683-6.165 3.003 0 4.83 1.842 4.83 4.844V32h5.317V18.628c0-5.084-3.044-8.246-8.036-8.246zM58.43 32h5.277V10.58H58.43V32zM96.96 10.382c-3.815.04-6.657 1.641-8.077 5.123-1.016-3.242-3.653-5.123-7.47-5.123-3.45.04-6.128 1.321-7.63 4.163V10.58h-5.277V32h5.277V21.43c0-3.482 2.07-6.045 5.52-6.164 2.922 0 4.709 1.84 4.709 4.884V32h5.317V21.43c0-3.482 2.07-6.045 5.48-6.164 2.922 0 4.749 1.84 4.749 4.884V32h5.317V18.628c0-5.084-3.004-8.246-7.915-8.246zM121.08 27.716c-3.613 0-6.128-2.642-6.128-6.485 0-3.763 2.515-6.446 6.128-6.446 3.572 0 6.089 2.683 6.089 6.446 0 3.803-2.517 6.485-6.089 6.485zm1.178-17.295c-3.248 0-5.765 1.321-7.307 3.684V2.774h-5.277V32h5.277v-3.483c1.583 2.362 4.1 3.683 7.388 3.683 6.169 0 10.188-4.363 10.188-10.81 0-6.564-4.14-10.969-10.269-10.969z"/><path opacity=".3" d="M58.43 7.979h5.277V2.774H58.43V7.98z"/><path opacity=".5" d="M.08 16h8.112V8H.08v8z"/><path opacity=".6" d="M8.192 8l8.11 8h-8.11V8z"/><path opacity=".4" d="M.08 24h8.112v-8H.08v8z"/><path opacity=".3" d="M.08 40h8.112v-8H.08v8z"/><path opacity=".5" d="M8.192 24h8.11v-8h-8.11v8z"/><path opacity=".6" d="M16.303 24h8.11v-8h-8.11v8z"/><path opacity=".7" d="M16.303 8h8.11V0h-8.11v8z"/><path opacity=".4" d="M8.192 24h8.11v8l-8.11-8z"/><path opacity=".5" d="M16.303 32h8.11v-8h-8.11v8z"/></g><defs><clipPath id="clip0-51b27033-b233-4239-bd8d-29a04da39c85"><path fill="#fff" transform="translate(.08)" d="M0 0h167.839v40H0z"/></clipPath></defs></symbol></svg>
