<svg style="display: none;" id="icon" version="1.1" xmlns="http://www.w3.org/2000/svg"><symbol id="icon-logo-dark" viewBox="0 0 664 160"><path fill-rule="evenodd" clip-rule="evenodd" d="M561.585 11.124H540.72l.003 117.154h20.862V11.124zM599.51 78.689c1.925-12.68 10.592-20.703 22.947-20.703 13.002 0 21.508 8.023 21.987 20.703H599.51zm22.787-36.912c-25.679 0-43.652 17.654-43.652 43.814 0 25.836 17.494 43.49 44.136 43.49 15.085 0 27.6-5.458 36.109-14.765l-11.236-11.715c-6.096 6.257-14.283 9.627-23.109 9.627-12.52 0-21.827-7.379-24.556-19.578h63.394c2.082-31.132-10.917-50.873-41.086-50.873zM179.953 41.617c-13.962.157-24.716 5.453-30.813 16.848V42.418h-20.864v85.86h20.864V86.073c0-14.124 8.344-24.554 22.468-24.716 11.877 0 19.096 7.381 19.096 19.42v47.501h21.024v-53.6c0-20.38-12.036-33.06-31.775-33.06zM230.704 128.278h20.862v-85.86h-20.862v85.86zM383.041 41.617c-15.087.157-26.322 6.58-31.937 20.54-4.014-12.996-14.444-20.54-29.531-20.54-13.643.157-24.232 5.296-30.169 16.689V42.418h-20.862v85.86h20.862V85.911c0-13.963 8.185-24.235 21.825-24.714 11.555 0 18.617 7.381 18.617 19.58v47.501h21.024V85.911c0-13.963 8.182-24.235 21.665-24.714 11.552 0 18.776 7.381 18.776 19.58v47.501h21.027v-53.6c0-20.38-11.879-33.06-31.297-33.06zM478.405 111.108c-14.284 0-24.232-10.595-24.232-26.001 0-15.085 9.948-25.836 24.232-25.836 14.122 0 24.073 10.751 24.073 25.836 0 15.247-9.951 26.001-24.073 26.001zm4.655-69.331c-12.837 0-22.79 5.296-28.887 14.765V11.124h-20.864v117.154h20.864v-13.962c6.259 9.469 16.207 14.765 29.206 14.765 24.397 0 40.282-17.494 40.282-43.333 0-26.317-16.369-43.971-40.601-43.971z" fill="#201547"/><path fill-rule="evenodd" clip-rule="evenodd" d="M230.704 31.986h20.862V11.124h-20.862v20.862z" fill="#E20041"/><path fill-rule="evenodd" clip-rule="evenodd" d="M0 64.14h32.07V32.07H0v32.07z" fill="#F14321"/><path fill-rule="evenodd" clip-rule="evenodd" d="M32.07 32.07l32.069 32.07h-32.07V32.07z" fill="#F86410"/><path fill-rule="evenodd" clip-rule="evenodd" d="M0 96.211h32.07v-32.07H0v32.07z" fill="#E92131"/><path fill-rule="evenodd" clip-rule="evenodd" d="M0 160h32.07v-32.941H0V160z" fill="#E20041"/><path fill-rule="evenodd" clip-rule="evenodd" d="M32.07 96.211h32.069v-32.07h-32.07v32.07z" fill="#F14321"/><path fill-rule="evenodd" clip-rule="evenodd" d="M64.14 96.211h32.066v-32.07H64.14v32.07z" fill="#F86410"/><path fill-rule="evenodd" clip-rule="evenodd" d="M64.14 32.941h32.066V0H64.14v32.941z" fill="#FF8500"/><path fill-rule="evenodd" clip-rule="evenodd" d="M32.07 96.21h32.069v32.068l-32.07-32.067z" fill="#E92131"/><path fill-rule="evenodd" clip-rule="evenodd" d="M64.14 128.278h32.066V96.211H64.14v32.067z" fill="#F14321"/></symbol><symbol id="icon-logo-white" viewBox="0 0 168 40"><g clip-path="url(#clip0)" fill-rule="evenodd" clip-rule="evenodd" fill="#fff"><path d="M142.118 2.775h-5.278L136.841 32h5.277V2.775zM151.709 19.63c.488-3.163 2.679-5.165 5.805-5.165 3.287 0 5.44 2.002 5.561 5.164h-11.366zm5.765-9.208c-6.495 0-11.041 4.404-11.041 10.93 0 6.445 4.425 10.848 11.163 10.848 3.815 0 6.981-1.361 9.133-3.683l-2.842-2.922c-1.542 1.561-3.612 2.402-5.845 2.402-3.166 0-5.52-1.842-6.21-4.884h16.033c.528-7.767-2.76-12.691-10.391-12.691zM45.595 10.382c-3.532.04-6.251 1.36-7.794 4.203v-4.004h-5.277V32h5.277V21.47c0-3.523 2.11-6.125 5.683-6.165 3.003 0 4.83 1.842 4.83 4.844V32h5.317V18.628c0-5.084-3.044-8.246-8.036-8.246zM58.43 32h5.277V10.58H58.43V32zM96.96 10.382c-3.815.04-6.657 1.641-8.077 5.123-1.016-3.242-3.653-5.123-7.47-5.123-3.45.04-6.128 1.321-7.63 4.163V10.58h-5.277V32h5.277V21.43c0-3.482 2.07-6.045 5.52-6.164 2.922 0 4.709 1.84 4.709 4.884V32h5.317V21.43c0-3.482 2.07-6.045 5.48-6.164 2.922 0 4.749 1.84 4.749 4.884V32h5.317V18.628c0-5.084-3.004-8.246-7.915-8.246zM121.08 27.716c-3.613 0-6.128-2.642-6.128-6.485 0-3.763 2.515-6.446 6.128-6.446 3.572 0 6.089 2.683 6.089 6.446 0 3.803-2.517 6.485-6.089 6.485zm1.178-17.295c-3.248 0-5.765 1.321-7.307 3.684V2.774h-5.277V32h5.277v-3.483c1.583 2.362 4.1 3.683 7.388 3.683 6.169 0 10.188-4.363 10.188-10.81 0-6.564-4.14-10.969-10.269-10.969z"/><path opacity=".3" d="M58.43 7.979h5.277V2.774H58.43V7.98z"/><path opacity=".5" d="M.08 16h8.112V8H.08v8z"/><path opacity=".6" d="M8.192 8l8.11 8h-8.11V8z"/><path opacity=".4" d="M.08 24h8.112v-8H.08v8z"/><path opacity=".3" d="M.08 40h8.112v-8H.08v8z"/><path opacity=".5" d="M8.192 24h8.11v-8h-8.11v8z"/><path opacity=".6" d="M16.303 24h8.11v-8h-8.11v8z"/><path opacity=".7" d="M16.303 8h8.11V0h-8.11v8z"/><path opacity=".4" d="M8.192 24h8.11v8l-8.11-8z"/><path opacity=".5" d="M16.303 32h8.11v-8h-8.11v8z"/></g><defs><clipPath id="clip0-2ecd9a6d-aa62-4a07-821d-ffd077a23132"><path fill="#fff" transform="translate(.08)" d="M0 0h167.839v40H0z"/></clipPath></defs></symbol></svg>
