<svg width="664" height="160" viewBox="0 0 664 160" fill="none" xmlns="http://www.w3.org/2000/svg">
  <path fill-rule="evenodd" clip-rule="evenodd" d="M561.585 11.1236H540.72L540.723 128.278H561.585V11.1236Z" fill="#201547"/>
  <path fill-rule="evenodd" clip-rule="evenodd" d="M599.51 78.6885C601.435 66.0087 610.102 57.9862 622.457 57.9862C635.459 57.9862 643.965 66.0087 644.444 78.6885H599.51ZM622.297 41.7766C596.618 41.7766 578.645 59.4306 578.645 85.5909C578.645 111.427 596.139 129.081 622.781 129.081C637.866 129.081 650.381 123.623 658.89 114.316L647.654 102.601C641.558 108.858 633.371 112.228 624.545 112.228C612.025 112.228 602.718 104.849 599.989 92.6505H663.383C665.465 61.5185 652.466 41.7766 622.297 41.7766Z" fill="#201547"/>
  <path fill-rule="evenodd" clip-rule="evenodd" d="M179.953 41.6172C165.991 41.7743 155.237 47.0703 149.14 58.4654V42.418H128.276V128.278H149.14V86.0726C149.14 71.9485 157.484 61.5188 171.608 61.3566C183.485 61.3566 190.704 68.738 190.704 80.7767V128.278H211.728V74.6775C211.728 54.2971 199.692 41.6172 179.953 41.6172Z" fill="#201547"/>
  <path fill-rule="evenodd" clip-rule="evenodd" d="M230.704 128.278H251.566V42.4182H230.704V128.278Z" fill="#201547"/>
  <path fill-rule="evenodd" clip-rule="evenodd" d="M383.041 41.6172C367.954 41.7743 356.719 48.1979 351.104 62.1573C347.09 49.1608 336.66 41.6172 321.573 41.6172C307.93 41.7743 297.341 46.9132 291.404 58.3058V42.418H270.542V128.278H291.404V85.9105C291.404 71.9485 299.589 61.6759 313.229 61.197C324.784 61.197 331.846 68.5783 331.846 80.7767V128.278H352.87V85.9105C352.87 71.9485 361.052 61.6759 374.535 61.197C386.087 61.197 393.311 68.5783 393.311 80.7767V128.278H414.338V74.6775C414.338 54.2971 402.459 41.6172 383.041 41.6172Z" fill="#201547"/>
  <path fill-rule="evenodd" clip-rule="evenodd" d="M478.405 111.108C464.121 111.108 454.173 100.513 454.173 85.1069C454.173 70.0224 464.121 59.2709 478.405 59.2709C492.527 59.2709 502.478 70.0224 502.478 85.1069C502.478 100.354 492.527 111.108 478.405 111.108ZM483.06 41.7766C470.223 41.7766 460.27 47.0726 454.173 56.5419V11.1236H433.309V128.278H454.173V114.316C460.432 123.785 470.38 129.081 483.379 129.081C507.776 129.081 523.661 111.587 523.661 85.748C523.661 59.4306 507.292 41.7766 483.06 41.7766Z" fill="#201547"/>
  <path fill-rule="evenodd" clip-rule="evenodd" d="M230.704 31.9861H251.566V11.1242H230.704V31.9861Z" fill="#E20041"/>
  <path fill-rule="evenodd" clip-rule="evenodd" d="M0 64.1392H32.0695V32.0697H0V64.1392Z" fill="#F14321"/>
  <path fill-rule="evenodd" clip-rule="evenodd" d="M32.0692 32.0703L64.1387 64.1398H32.0692V32.0703Z" fill="#F86410"/>
  <path fill-rule="evenodd" clip-rule="evenodd" d="M0 96.2113H32.0695V64.1418H0V96.2113Z" fill="#E92131"/>
  <path fill-rule="evenodd" clip-rule="evenodd" d="M0 160H32.0695V127.059H0V160Z" fill="#E20041"/>
  <path fill-rule="evenodd" clip-rule="evenodd" d="M32.0692 96.2113H64.1387V64.1418H32.0692V96.2113Z" fill="#F14321"/>
  <path fill-rule="evenodd" clip-rule="evenodd" d="M64.1395 96.2113H96.2064V64.1418H64.1395V96.2113Z" fill="#F86410"/>
  <path fill-rule="evenodd" clip-rule="evenodd" d="M64.1395 32.9412H96.2064V0H64.1395V32.9412Z" fill="#FF8500"/>
  <path fill-rule="evenodd" clip-rule="evenodd" d="M32.0692 96.2109H64.1387V128.278L32.0692 96.2109Z" fill="#E92131"/>
  <path fill-rule="evenodd" clip-rule="evenodd" d="M64.1395 128.278H96.2064V96.2109H64.1395V128.278Z" fill="#F14321"/>
</svg>
