<svg width="30" height="30" viewBox="0 0 30 30" fill="none" xmlns="http://www.w3.org/2000/svg">
  <path d="M7.19593 18.9418L10.9749 22.7196C10.7284 22.9749 10.4335 23.1785 10.1074 23.3186C9.78137 23.4587 9.43067 23.5324 9.07581 23.5355C8.72095 23.5386 8.36903 23.471 8.04058 23.3366C7.71213 23.2022 7.41374 23.0037 7.1628 22.7528C6.91187 22.5018 6.71342 22.2034 6.57904 21.8749C6.44466 21.5465 6.37704 21.1945 6.38013 20.8397C6.38321 20.4848 6.45694 20.1341 6.597 19.808C6.73707 19.4819 6.94067 19.187 7.19593 18.9404V18.9418ZM19.0447 26.0565L18.1 27L3 11.8992L3.94342 10.9544L5.416 11.1642C6.42356 11.3085 7.67432 11.0011 8.19146 10.4826L13.3829 5.29222C14.8896 3.81383 16.9189 2.99007 19.0297 3.00009C21.1404 3.01011 23.1619 3.85309 24.6544 5.34572C26.147 6.83835 26.9899 8.85991 26.9999 10.9708C27.0099 13.0816 26.1862 15.1111 24.7079 16.6178L19.5165 21.8109C18.998 22.3294 18.6906 23.5789 18.8349 24.5865L19.0447 26.0565Z" fill="white"/>
</svg>
